<svg width="20" height="20" viewBox="0 0 20 20" fill="none" xmlns="http://www.w3.org/2000/svg">
<path d="M5.254 14.596C5.16292 14.5017 5.11253 14.3754 5.11367 14.2443C5.11481 14.1132 5.16739 13.9878 5.26009 13.8951C5.3528 13.8024 5.4782 13.7498 5.6093 13.7486C5.7404 13.7475 5.8667 13.7979 5.961 13.889C6.73019 14.6581 7.71018 15.1819 8.77705 15.3941C9.84393 15.6063 10.9498 15.4974 11.9547 15.0812C12.9597 14.6649 13.8187 13.96 14.423 13.0555C15.0274 12.1511 15.35 11.0877 15.35 9.99998C15.3559 9.87137 15.4111 9.74999 15.5043 9.66111C15.5974 9.57223 15.7212 9.5227 15.85 9.52283C15.9787 9.52296 16.1024 9.57274 16.1954 9.6618C16.2884 9.75087 16.3434 9.87236 16.349 10.001C16.3489 11.2865 15.9677 12.5431 15.2534 13.612C14.5392 14.6808 13.5241 15.5139 12.3364 16.0058C11.1487 16.4978 9.84185 16.6265 8.58102 16.3757C7.3202 16.1249 6.16204 15.5059 5.253 14.597" fill="#45B69C"/>
<path d="M13.131 12.4161C13.0207 12.4897 12.8856 12.5164 12.7556 12.4904C12.6255 12.4645 12.5111 12.3879 12.4375 12.2776C12.3639 12.1672 12.3372 12.0322 12.3631 11.9021C12.3891 11.7721 12.4657 11.6577 12.576 11.5841L15.576 9.58406C15.6306 9.54762 15.6919 9.5223 15.7563 9.50953C15.8207 9.49677 15.887 9.49682 15.9514 9.50968C16.0158 9.52254 16.0771 9.54796 16.1316 9.58449C16.1862 9.62101 16.2331 9.66793 16.2695 9.72256C16.3059 9.77719 16.3313 9.83846 16.344 9.90288C16.3568 9.9673 16.3567 10.0336 16.3439 10.098C16.331 10.1624 16.3056 10.2236 16.2691 10.2782C16.2326 10.3328 16.1856 10.3796 16.131 10.4161L13.131 12.4161Z" fill="#45B69C"/>
<path d="M18.266 12.723C18.3047 12.7776 18.332 12.8394 18.3464 12.9047C18.3608 12.97 18.3619 13.0376 18.3498 13.1034C18.3376 13.1691 18.3123 13.2318 18.2754 13.2876C18.2386 13.3435 18.1909 13.3913 18.1353 13.4284C18.0796 13.4655 18.017 13.491 17.9513 13.5035C17.8856 13.5159 17.818 13.5151 17.7526 13.501C17.6872 13.4869 17.6253 13.4598 17.5706 13.4213C17.5159 13.3828 17.4694 13.3338 17.434 13.277L15.434 10.277C15.3651 10.1667 15.3419 10.0339 15.3694 9.90673C15.3968 9.77959 15.4727 9.66814 15.581 9.59606C15.6893 9.52397 15.8214 9.4969 15.9493 9.52061C16.0772 9.54432 16.1908 9.61693 16.266 9.72303L18.266 12.723ZM14.354 5.20503C14.4478 5.29892 14.5004 5.4262 14.5003 5.55888C14.5002 5.69157 14.4474 5.81878 14.3535 5.91253C14.307 5.95895 14.2518 5.99576 14.1911 6.02086C14.1304 6.04596 14.0653 6.05885 13.9997 6.05881C13.867 6.05871 13.7398 6.00592 13.646 5.91203C12.8768 5.14282 11.8967 4.619 10.8297 4.40683C9.76274 4.19466 8.65682 4.30366 7.65181 4.72005C6.64679 5.13644 5.78783 5.84152 5.18356 6.74611C4.57929 7.6507 4.25684 8.71417 4.257 9.80203C4.25687 9.93464 4.20407 10.0618 4.1102 10.1554C4.01634 10.2491 3.88911 10.3017 3.7565 10.3015C3.6239 10.3014 3.49677 10.2486 3.4031 10.1547C3.30942 10.0609 3.25687 9.93364 3.257 9.80103C3.25688 8.5153 3.63807 7.25842 4.35235 6.18936C5.06664 5.12029 6.08193 4.28708 7.26981 3.7951C8.45768 3.30312 9.76478 3.17448 11.0258 3.42545C12.2868 3.67642 13.445 4.29572 14.354 5.20503Z" fill="#45B69C"/>
<path d="M6.476 7.38509C6.53063 7.34865 6.5919 7.32332 6.65632 7.31056C6.72073 7.2978 6.78703 7.29785 6.85143 7.31071C6.91583 7.32357 6.97706 7.34899 7.03163 7.38551C7.08621 7.42204 7.13305 7.46896 7.1695 7.52359C7.20594 7.57822 7.23126 7.63949 7.24402 7.70391C7.25679 7.76832 7.25673 7.83462 7.24387 7.89902C7.23101 7.96342 7.20559 8.02465 7.16907 8.07923C7.13254 8.1338 7.08563 8.18065 7.031 8.21709L4.031 10.2171C3.97637 10.2535 3.91509 10.2789 3.85068 10.2916C3.78626 10.3044 3.71996 10.3043 3.65556 10.2915C3.59116 10.2786 3.52993 10.2532 3.47536 10.2167C3.42078 10.1801 3.37394 10.1332 3.3375 10.0786C3.30105 10.024 3.27573 9.96268 3.26297 9.89827C3.25021 9.83385 3.25026 9.76755 3.26312 9.70315C3.27598 9.63876 3.3014 9.57752 3.33792 9.52295C3.37445 9.46837 3.42137 9.42153 3.476 9.38509L6.476 7.38509Z" fill="#45B69C"/>
<path d="M1.341 7.07802C1.3023 7.02345 1.27496 6.96167 1.26057 6.89634C1.24618 6.83102 1.24505 6.76346 1.25725 6.69769C1.26944 6.63191 1.29471 6.56925 1.33155 6.51342C1.3684 6.45759 1.41607 6.40972 1.47175 6.37264C1.52743 6.33556 1.58999 6.31004 1.65571 6.29757C1.72143 6.28511 1.78899 6.28596 1.85438 6.30008C1.91977 6.31419 1.98166 6.34129 2.03639 6.37975C2.09112 6.41822 2.13757 6.46728 2.173 6.52402L4.173 9.52402C4.24188 9.63436 4.26506 9.76719 4.23761 9.89433C4.21017 10.0215 4.13425 10.1329 4.02599 10.205C3.91773 10.2771 3.78563 10.3042 3.65774 10.2804C3.52985 10.2567 3.41623 10.1841 3.341 10.078L1.341 7.07802Z" fill="#45B69C"/>
</svg>
